<svg width="70" height="39" viewBox="0 0 70 39" fill="none" xmlns="http://www.w3.org/2000/svg">
<path d="M13.01 10.5106C26.4752 -3.54228 58.747 -0.00835681 65.7766 7.05948C74.3272 15.6567 67.7182 27.9724 64.8565 29.9337C61.1698 32.4605 47.7006 38.8647 35.1478 38.8647C22.595 38.8647 23.0971 33.3114 14.0591 31.7969C3.09566 29.9597 5.74988 18.0876 13.01 10.5106Z" fill="#98DDB5"/>
<path d="M62.4978 3.59463C62.3675 2.49294 63.1511 1.46587 64.2481 1.3006C65.3451 1.13533 66.34 1.89444 66.4704 2.99612L67.4217 11.0381C67.552 12.1397 66.7684 13.1668 65.6714 13.3321C64.5744 13.4974 63.5795 12.7382 63.4491 11.6366L62.4978 3.59463Z" fill="#98DDB5"/>
<path d="M16.7751 13.9134C12.3027 18.6051 15.264 24.675 18.707 27.2732C28.2051 34.4408 53.9983 32.0366 60.5853 27.7062C67.2971 23.2938 67.2611 12.6807 60.5853 7.7501C53.9094 2.81947 23.4412 6.92031 16.7751 13.9134Z" fill="white"/>
<path d="M1.34133 11.0084C0.600533 9.83353 0.930616 8.2473 2.07859 7.46547C3.22656 6.68364 4.75771 7.00227 5.49851 8.17714L12.0811 18.6169C12.8219 19.7918 12.4918 21.378 11.3438 22.1598C10.1959 22.9416 8.66471 22.623 7.92391 21.4481L1.34133 11.0084Z" fill="#98DDB5"/>
<path d="M31.475 18.1661C31.475 20.3966 29.6766 22.2048 27.4581 22.2048C25.2396 22.2048 23.4412 20.3966 23.4412 18.1661C23.4412 15.9355 25.2396 14.1273 27.4581 14.1273C29.6766 14.1273 31.475 15.9355 31.475 18.1661Z" fill="#98DDB5"/>
<path d="M58.0152 17.6612C58.0152 19.613 56.4415 21.1952 54.5004 21.1952C52.5592 21.1952 50.9856 19.613 50.9856 17.6612C50.9856 15.7095 52.5592 14.1273 54.5004 14.1273C56.4415 14.1273 58.0152 15.7095 58.0152 17.6612Z" fill="#98DDB5"/>
</svg>
