<svg width="25" height="22" viewBox="0 0 25 22" fill="none" xmlns="http://www.w3.org/2000/svg">
<path d="M6.141 18.7681L6.14424 18.7692L4.96344 20.8144C4.53243 21.5609 3.57776 21.8167 2.83121 21.3857C2.08469 20.9547 1.82889 20 2.25989 19.2535L3.12977 17.7468L3.21323 17.6023C3.36232 17.3879 3.73023 17.0182 4.46616 17.0877C4.46616 17.0877 6.19794 17.2756 6.32324 18.1757C6.32328 18.1757 6.34037 18.4719 6.141 18.7681ZM22.889 13.5443H19.2068C18.956 13.5276 18.8465 13.438 18.8035 13.386L18.8008 13.3812L14.8591 6.55402L14.854 6.55744L14.6176 6.21848C14.2302 5.62605 13.615 7.14133 13.615 7.14133C12.8804 8.82978 13.7192 10.7495 14.0117 11.3297L19.4864 20.8122C19.9174 21.5588 20.8721 21.8146 21.6186 21.3836C22.3651 20.9526 22.6209 19.9979 22.1899 19.2514L20.8209 16.8802C20.7944 16.8228 20.7482 16.6667 21.029 16.6661H22.889C23.751 16.6661 24.4499 15.9673 24.4499 15.1052C24.4499 14.2432 23.751 13.5443 22.889 13.5443ZM15.7369 15.6663C15.7369 15.6663 15.9335 16.6661 15.173 16.6661H14.4125V16.6661H1.56088C0.698838 16.6661 0 15.9673 0 15.1052C0 14.2432 0.698838 13.5443 1.56088 13.5443H5.06041C5.6254 13.5116 5.75935 13.1855 5.75935 13.1855L5.76242 13.187L10.3305 5.27492L10.3291 5.27464C10.4124 5.12179 10.343 4.97738 10.331 4.95452L8.82239 2.34158C8.39135 1.59503 8.64715 0.640392 9.39371 0.209387C10.1403 -0.221653 11.0949 0.0341473 11.5259 0.7807L12.2256 1.99257L12.924 0.782853C13.355 0.0363007 14.3096 -0.2195 15.0562 0.21154C15.8027 0.64258 16.0585 1.59722 15.6275 2.34374L9.27093 13.3536C9.24314 13.4206 9.23463 13.5258 9.44142 13.5443H13.241L13.2418 13.5814C13.2418 13.5814 15.4379 13.6155 15.7369 15.6663Z" fill="white"/>
</svg>
