<svg width="25" height="25" viewBox="0 0 25 25" fill="none" xmlns="http://www.w3.org/2000/svg">
<path fill-rule="evenodd" clip-rule="evenodd" d="M12.5 0C5.59644 0 0 5.59644 0 12.5C0 19.4036 5.59644 25 12.5 25C19.4036 25 25 19.4036 25 12.5C25 5.59644 19.4036 0 12.5 0ZM9.75173 5.87352C10.4628 5.84116 10.6901 5.83324 12.5006 5.83324H12.4986C14.3097 5.83324 14.5361 5.84116 15.2472 5.87352C15.9569 5.90602 16.4417 6.01838 16.8667 6.18324C17.3056 6.35338 17.6764 6.58116 18.0472 6.952C18.4181 7.32256 18.6459 7.69451 18.8167 8.13299C18.9806 8.55688 19.0931 9.04133 19.1264 9.75106C19.1584 10.4622 19.1667 10.6894 19.1667 12.5C19.1667 14.3106 19.1584 14.5372 19.1264 15.2483C19.0931 15.9578 18.9806 16.4424 18.8167 16.8664C18.6459 17.3047 18.4181 17.6767 18.0472 18.0473C17.6768 18.4181 17.3054 18.6464 16.8671 18.8167C16.4429 18.9816 15.9579 19.0939 15.2482 19.1264C14.5371 19.1588 14.3105 19.1667 12.4998 19.1667C10.6894 19.1667 10.4623 19.1588 9.75118 19.1264C9.04158 19.0939 8.557 18.9816 8.13283 18.8167C7.69463 18.6464 7.32268 18.4181 6.95226 18.0473C6.58156 17.6767 6.35378 17.3047 6.18336 16.8663C6.01864 16.4424 5.90627 15.9579 5.87364 15.2482C5.84141 14.5371 5.83336 14.3106 5.83336 12.5C5.83336 10.6894 5.84169 10.462 5.8735 9.75092C5.90544 9.04147 6.01794 8.55688 6.18322 8.13285C6.35406 7.69451 6.58184 7.32256 6.95267 6.952C7.32323 6.5813 7.69518 6.35352 8.13366 6.18324C8.55755 6.01838 9.042 5.90602 9.75173 5.87352Z" fill="white"/>
<path fill-rule="evenodd" clip-rule="evenodd" d="M11.9026 7.0345C12.0187 7.03432 12.1436 7.03438 12.2784 7.03444L12.5006 7.0345C14.2806 7.0345 14.4916 7.04089 15.1945 7.07284C15.8445 7.10256 16.1973 7.21117 16.4323 7.30242C16.7434 7.42326 16.9652 7.5677 17.1984 7.80104C17.4318 8.03437 17.5762 8.2566 17.6973 8.56771C17.7886 8.80244 17.8973 9.15522 17.9269 9.80523C17.9589 10.508 17.9658 10.7191 17.9658 12.4983C17.9658 14.2775 17.9589 14.4886 17.9269 15.1914C17.8972 15.8414 17.7886 16.1942 17.6973 16.4289C17.5765 16.74 17.4318 16.9615 17.1984 17.1947C16.9651 17.4281 16.7436 17.5725 16.4323 17.6934C16.1976 17.785 15.8445 17.8934 15.1945 17.9231C14.4917 17.955 14.2806 17.962 12.5006 17.962C10.7205 17.962 10.5095 17.955 9.8067 17.9231C9.15669 17.8931 8.80391 17.7845 8.56877 17.6932C8.25765 17.5724 8.03543 17.4279 7.80209 17.1946C7.56876 16.9613 7.42431 16.7396 7.3032 16.4284C7.21195 16.1936 7.1032 15.8408 7.07361 15.1908C7.04167 14.4881 7.03528 14.2769 7.03528 12.4966C7.03528 10.7163 7.04167 10.5063 7.07361 9.80356C7.10333 9.15355 7.21195 8.80077 7.3032 8.56577C7.42403 8.25466 7.56876 8.03243 7.80209 7.79909C8.03543 7.56576 8.25765 7.42131 8.56877 7.3002C8.80377 7.20853 9.15669 7.1002 9.8067 7.07034C10.4217 7.04256 10.66 7.03423 11.9026 7.03284V7.0345ZM16.0593 8.1415C15.6176 8.1415 15.2592 8.49942 15.2592 8.94123C15.2592 9.38291 15.6176 9.74124 16.0593 9.74124C16.5009 9.74124 16.8593 9.38291 16.8593 8.94123C16.8593 8.49956 16.5009 8.14123 16.0593 8.14123V8.1415ZM9.07697 12.5C9.07697 10.6094 10.6098 9.07645 12.5005 9.07638C14.3912 9.07638 15.9237 10.6093 15.9237 12.5C15.9237 14.3907 14.3913 15.923 12.5006 15.923C10.6099 15.923 9.07697 14.3907 9.07697 12.5Z" fill="white"/>
<path d="M12.5006 10.2778C13.7279 10.2778 14.7229 11.2727 14.7229 12.5001C14.7229 13.7273 13.7279 14.7223 12.5006 14.7223C11.2733 14.7223 10.2784 13.7273 10.2784 12.5001C10.2784 11.2727 11.2733 10.2778 12.5006 10.2778Z" fill="white"/>
</svg>
